<svg width="376" height="175" viewBox="0 0 376 175" fill="none" xmlns="http://www.w3.org/2000/svg">
<path d="M101.269 87.8022C101.269 111.298 84.0987 114.719 77.2399 114.719C70.3811 114.719 53.2104 111.298 53.2104 87.8022V2.40039H34.668V88.3126C34.668 102.716 39.4739 113.179 47.5436 120.891C55.8581 127.875 66.3725 131.704 77.2352 131.704C88.0978 131.704 98.6122 127.875 106.927 120.891C115.006 113.179 119.812 102.716 119.812 88.3126V2.40039H101.269V87.8022Z" fill="#131316"/>
<path d="M309.909 0C271.122 0 243.828 31.3783 243.828 65.8471C243.828 100.656 271.973 131.704 309.909 131.704C327.355 131.727 344.1 124.849 356.484 112.574C368.868 100.299 375.885 83.6249 376 66.1968C376 30.0173 347.675 0.0378132 309.909 0.0378132V0ZM309.909 114.758C277.299 114.758 262.371 86.6399 262.371 65.8849C262.371 45.6497 277.129 17.0123 309.909 17.0123C341.498 17.0123 357.467 43.939 357.467 66.4047C357.467 86.2524 342.699 114.758 309.909 114.758" fill="#131316"/>
<path d="M208.324 94.4843C208.271 97.6802 207.81 100.856 206.952 103.936C204.549 111.497 198.371 114.738 192.023 114.738C187.728 114.738 179.829 114.228 175.884 103.936H156.83C159.924 120.948 175.373 131.722 191.834 131.722C205.731 131.722 218.096 124.861 223.753 111.487C225.903 105.728 226.952 99.6181 226.847 93.473V2.40039H208.305L208.324 94.4843Z" fill="#131316"/>
<path d="M180.169 61.2441C180.119 57.8859 179.074 54.6177 177.168 51.8515C175.261 49.0853 172.578 46.9447 169.456 45.6996C166.333 44.4545 162.912 44.1605 159.623 44.8547C156.333 45.5489 153.324 47.2002 150.972 49.6006C148.621 52.0009 147.033 55.0429 146.409 58.3432C145.786 61.6434 146.154 65.0543 147.467 68.146C148.78 71.2376 150.98 73.8718 153.79 75.7164C156.599 77.561 159.892 78.5336 163.254 78.5116C165.5 78.4881 167.719 78.0228 169.785 77.1422C171.85 76.2616 173.722 74.9829 175.293 73.3793C176.864 71.7758 178.103 69.8787 178.94 67.7964C179.776 65.7142 180.194 63.4877 180.169 61.2441" fill="#131316"/>
<path d="M8.8789 173.166V174.905H0.0523224V158.961H1.86872V173.166H8.8789Z" fill="#131316"/>
<path d="M18.2163 158.952H16.3905V174.906H18.2163V158.952Z" fill="#131316"/>
<path d="M31.8015 174.905L25.3211 158.961H27.2794L32.7854 172.798L38.3008 158.961H40.2213L33.6936 174.905H31.8015Z" fill="#131316"/>
<path d="M49.1425 158.952H47.3166V174.906H49.1425V158.952Z" fill="#131316"/>
<path d="M69.9365 174.905L60.3625 162.108V174.905H58.5367V158.961H60.4287L70.0027 171.777V158.961H71.8096V174.905H69.9365Z" fill="#131316"/>
<path d="M93.9659 167.117V172.902C93.1294 173.559 92.1895 174.073 91.1846 174.423C90.1759 174.795 89.1095 174.987 88.0342 174.99C86.5697 175.005 85.1273 174.634 83.8527 173.913C82.6103 173.217 81.5703 172.211 80.8349 170.992C80.0923 169.767 79.7058 168.36 79.7185 166.928C79.7012 165.502 80.0882 164.099 80.8349 162.883C81.583 161.667 82.6363 160.666 83.8906 159.982C85.1903 159.265 86.6538 158.897 88.1383 158.914C90.2962 158.909 92.3828 159.685 94.0132 161.097L92.9631 162.467C92.3036 161.885 91.5439 161.427 90.721 161.116C89.8984 160.792 89.0224 160.625 88.1383 160.624C86.9799 160.611 85.8382 160.901 84.8272 161.465C83.8448 162.005 83.0224 162.794 82.4431 163.753C81.8613 164.713 81.5537 165.815 81.5537 166.938C81.5537 168.061 81.8613 169.162 82.4431 170.123C83.0222 171.084 83.8444 171.876 84.8272 172.419C85.8373 172.988 86.9791 173.281 88.1383 173.27C88.8748 173.265 89.6059 173.144 90.3047 172.911C91.0226 172.69 91.7069 172.372 92.3387 171.966V167.155L93.9659 167.117Z" fill="#131316"/>
<path d="M123.719 159.529C124.716 159.924 125.63 160.501 126.415 161.23L125.318 162.629C124.69 162.003 123.948 161.502 123.132 161.154C122.204 160.761 121.199 160.585 120.192 160.639C119.185 160.693 118.204 160.976 117.324 161.466C116.346 161.998 115.532 162.785 114.968 163.744C114.398 164.7 114.098 165.793 114.098 166.905C114.098 168.018 114.398 169.111 114.968 170.067C115.534 171.026 116.348 171.816 117.324 172.354C118.321 172.911 119.445 173.201 120.588 173.195C121.457 173.195 122.318 173.024 123.123 172.694C123.937 172.364 124.682 171.883 125.318 171.277L126.434 172.534C125.631 173.292 124.699 173.9 123.681 174.329C122.678 174.765 121.596 174.99 120.502 174.991C119.05 175.005 117.62 174.633 116.359 173.914C115.117 173.216 114.082 172.202 113.36 170.974C112.623 169.747 112.24 168.341 112.253 166.91C112.239 165.49 112.626 164.095 113.369 162.884C114.431 161.206 116.047 159.952 117.938 159.339C119.828 158.726 121.873 158.793 123.719 159.529" fill="#131316"/>
<path d="M144.92 159.982C146.167 160.671 147.211 161.674 147.947 162.893C148.692 164.106 149.079 165.505 149.063 166.928C149.076 168.36 148.69 169.768 147.947 170.992C147.211 172.214 146.167 173.22 144.92 173.913C143.631 174.619 142.185 174.99 140.715 174.99C139.245 174.99 137.798 174.619 136.509 173.913C135.26 173.221 134.213 172.214 133.473 170.992C132.742 169.764 132.357 168.362 132.357 166.933C132.357 165.504 132.742 164.102 133.473 162.874C134.211 161.656 135.258 160.655 136.509 159.972C137.8 159.26 139.254 158.896 140.729 158.914C142.195 158.898 143.64 159.266 144.92 159.982V159.982ZM137.474 161.494C136.499 162.036 135.681 162.82 135.1 163.772C134.504 164.716 134.193 165.812 134.201 166.928C134.194 168.054 134.506 169.158 135.1 170.113C135.679 171.067 136.497 171.852 137.474 172.391C138.466 172.953 139.589 173.243 140.729 173.232C141.851 173.238 142.955 172.954 143.935 172.407C144.914 171.861 145.736 171.071 146.32 170.113C146.904 169.154 147.209 168.051 147.2 166.928C147.21 165.811 146.905 164.714 146.32 163.762C145.728 162.812 144.905 162.028 143.927 161.483C142.949 160.937 141.849 160.648 140.729 160.643C139.588 160.636 138.465 160.929 137.474 161.494Z" fill="#131316"/>
<path d="M165.789 173.166V174.905H156.963V158.961H158.789V173.166H165.789Z" fill="#131316"/>
<path d="M182.109 173.166V174.905H173.273V158.961H175.108V173.166H182.109Z" fill="#131316"/>
<path d="M191.437 160.709V165.955H199.487V167.713H191.437V173.166H200.746V174.905H189.611V158.961H200.452V160.709H191.437Z" fill="#131316"/>
<path d="M218.976 159.528C219.972 159.923 220.887 160.5 221.672 161.229L220.575 162.628C219.949 162.004 219.211 161.504 218.399 161.154C217.469 160.759 216.462 160.582 215.454 160.636C214.445 160.69 213.462 160.974 212.581 161.465C211.607 162.002 210.794 162.788 210.225 163.743C209.655 164.7 209.355 165.792 209.355 166.905C209.355 168.018 209.655 169.11 210.225 170.066C210.794 171.023 211.607 171.813 212.581 172.353C213.581 172.912 214.708 173.202 215.854 173.194C216.721 173.193 217.578 173.023 218.38 172.694C219.194 172.363 219.939 171.882 220.575 171.276L221.691 172.533C220.888 173.291 219.956 173.899 218.938 174.329C217.935 174.765 216.853 174.991 215.759 174.99C214.307 175.004 212.877 174.632 211.616 173.913C210.374 173.215 209.339 172.201 208.617 170.973C207.88 169.746 207.497 168.34 207.51 166.909C207.499 165.488 207.889 164.093 208.636 162.883C209.372 161.67 210.412 160.67 211.654 159.982C212.926 159.265 214.365 158.897 215.826 158.914C216.906 158.909 217.977 159.118 218.976 159.528" fill="#131316"/>
<path d="M234.387 160.709V174.905H232.561V160.709H227.367V158.961H239.609V160.709H234.387Z" fill="#131316"/>
<path d="M248.634 158.952H246.809V174.906H248.634V158.952Z" fill="#131316"/>
<path d="M269.078 159.982C270.328 160.671 271.375 161.674 272.115 162.893C272.862 164.109 273.249 165.512 273.231 166.938C273.244 168.37 272.858 169.777 272.115 171.002C271.375 172.224 270.328 173.23 269.078 173.923C267.791 174.629 266.346 175 264.878 175C263.409 175 261.965 174.629 260.678 173.923C259.428 173.23 258.381 172.224 257.641 171.002C256.91 169.774 256.525 168.372 256.525 166.943C256.525 165.514 256.91 164.112 257.641 162.884C258.379 161.665 259.427 160.664 260.678 159.982C261.968 159.27 263.422 158.905 264.897 158.923C266.36 158.908 267.802 159.276 269.078 159.991V159.982ZM261.642 161.504C260.667 162.048 259.846 162.832 259.258 163.781C258.666 164.727 258.357 165.823 258.369 166.938C258.359 168.062 258.667 169.167 259.258 170.123C259.858 171.085 260.695 171.877 261.689 172.423C262.683 172.97 263.8 173.252 264.935 173.242C266.057 173.248 267.161 172.964 268.141 172.417C269.12 171.871 269.942 171.081 270.526 170.123C271.11 169.164 271.415 168.061 271.406 166.938C271.416 165.821 271.111 164.724 270.526 163.772C269.945 162.826 269.131 162.045 268.161 161.504C267.181 160.938 266.067 160.644 264.935 160.653C263.794 160.644 262.671 160.938 261.68 161.504" fill="#131316"/>
<path d="M292.521 174.905L282.947 162.108V174.905H281.121V158.961H283.014L292.597 171.777V158.961H294.394V174.905H292.521Z" fill="#131316"/>
</svg>
