<svg width="600" height="234" viewBox="0 0 600 234" fill="none" xmlns="http://www.w3.org/2000/svg">
<g clip-path="url(#clip0_1_222)">
<path d="M124.827 3.2207H100.226V172.779H124.827V3.2207Z" fill="#131225"/>
<path d="M24.6138 3.2207H0V172.766H83.1722V150.084H24.6138V3.2207Z" fill="#131225"/>
<path d="M235.313 117.324C235.313 148.72 212.52 153.292 203.416 153.292C194.311 153.292 171.518 148.72 171.518 117.324V3.20801H146.904V118.006C146.904 137.253 153.284 151.234 163.996 161.539C175.033 170.871 188.99 175.987 203.409 175.987C217.829 175.987 231.786 170.871 242.823 161.539C253.547 151.234 259.927 137.253 259.927 118.006V3.20801H235.313V117.324Z" fill="#131225"/>
<path d="M512.269 0C460.781 0 424.551 41.9286 424.551 87.9869C424.551 134.5 461.911 175.986 512.269 175.986C535.426 176.017 557.654 166.827 574.094 150.424C590.533 134.022 599.847 111.742 600 88.4542C600 40.11 562.401 0.0505272 512.269 0.0505272V0ZM512.269 153.342C468.981 153.342 449.165 115.771 449.165 88.0374C449.165 60.9985 468.755 22.7324 512.269 22.7324C554.2 22.7324 575.398 58.7127 575.398 88.732C575.398 115.253 555.795 153.342 512.269 153.342Z" fill="#131225"/>
<path d="M377.42 126.253C377.35 130.524 376.738 134.768 375.599 138.882C372.41 148.986 364.209 153.317 355.783 153.317C350.081 153.317 339.595 152.635 334.359 138.882H309.067C313.173 161.615 333.68 176.012 355.531 176.012C373.979 176.012 390.393 166.843 397.902 148.973C400.756 141.278 402.149 133.113 402.009 124.902V3.20801H377.395L377.42 126.253Z" fill="#131225"/>
<path d="M340.048 81.8362C339.981 77.3489 338.595 72.9819 336.064 69.2856C333.533 65.5892 329.971 62.729 325.826 61.0652C321.681 59.4014 317.14 59.0086 312.774 59.9362C308.407 60.8638 304.412 63.0704 301.291 66.2778C298.169 69.4853 296.062 73.55 295.234 77.9599C294.406 82.3698 294.894 86.9276 296.638 91.0588C298.381 95.1899 301.302 98.7097 305.031 101.175C308.76 103.639 313.132 104.939 317.594 104.91C320.575 104.878 323.521 104.256 326.263 103.08C329.005 101.903 331.49 100.195 333.575 98.0517C335.66 95.909 337.305 93.374 338.416 90.5917C339.527 87.8093 340.081 84.8342 340.048 81.8362Z" fill="#131225"/>
<path d="M112.671 231.391V233.714H100.954V212.409H103.365V231.391H112.671Z" fill="#131225"/>
<path d="M125.066 212.396H122.642V233.714H125.066V212.396Z" fill="#131225"/>
<path d="M143.099 233.714L134.497 212.409H137.097L144.405 230.898L151.727 212.409H154.276L145.611 233.714H143.099Z" fill="#131225"/>
<path d="M166.118 212.396H163.695V233.714H166.118V212.396Z" fill="#131225"/>
<path d="M193.721 233.714L181.012 216.615V233.714H178.588V212.409H181.1L193.809 229.534V212.409H196.207V233.714H193.721Z" fill="#131225"/>
<path d="M225.618 223.307V231.036C224.508 231.915 223.26 232.602 221.926 233.07C220.587 233.567 219.172 233.824 217.744 233.828C215.8 233.848 213.885 233.351 212.193 232.388C210.544 231.458 209.164 230.114 208.187 228.485C207.202 226.849 206.689 224.968 206.706 223.055C206.683 221.149 207.196 219.275 208.187 217.65C209.181 216.024 210.579 214.687 212.244 213.773C213.969 212.815 215.912 212.323 217.882 212.345C220.747 212.34 223.517 213.376 225.681 215.263L224.287 217.094C223.411 216.316 222.403 215.704 221.311 215.288C220.219 214.855 219.056 214.633 217.882 214.631C216.345 214.613 214.829 215 213.487 215.755C212.183 216.476 211.091 217.53 210.322 218.812C209.55 220.095 209.142 221.567 209.142 223.068C209.142 224.568 209.55 226.04 210.322 227.324C211.091 228.608 212.182 229.667 213.487 230.392C214.828 231.152 216.343 231.544 217.882 231.529C218.86 231.522 219.83 231.36 220.758 231.049C221.711 230.754 222.619 230.329 223.458 229.786V223.358L225.618 223.307Z" fill="#131225"/>
<path d="M265.113 213.167C266.436 213.695 267.65 214.466 268.692 215.44L267.236 217.309C266.402 216.472 265.418 215.804 264.335 215.339C263.103 214.814 261.768 214.578 260.431 214.65C259.095 214.722 257.793 215.101 256.624 215.756C255.326 216.466 254.245 217.518 253.497 218.799C252.741 220.077 252.342 221.537 252.342 223.024C252.342 224.511 252.741 225.97 253.497 227.248C254.249 228.53 255.328 229.586 256.624 230.304C257.948 231.049 259.44 231.436 260.957 231.428C262.111 231.427 263.254 231.2 264.322 230.759C265.403 230.317 266.391 229.674 267.236 228.865L268.718 230.544C267.652 231.558 266.414 232.37 265.063 232.944C263.732 233.526 262.295 233.827 260.844 233.828C258.916 233.846 257.018 233.349 255.343 232.388C253.694 231.456 252.321 230.101 251.362 228.46C250.385 226.821 249.876 224.942 249.893 223.03C249.875 221.132 250.388 219.268 251.375 217.65C252.785 215.408 254.93 213.732 257.439 212.913C259.948 212.095 262.663 212.184 265.113 213.167Z" fill="#131225"/>
<path d="M293.256 213.773C294.911 214.693 296.297 216.034 297.275 217.662C298.264 219.284 298.777 221.153 298.757 223.055C298.774 224.968 298.26 226.849 297.275 228.486C296.297 230.117 294.912 231.463 293.256 232.388C291.545 233.332 289.625 233.827 287.674 233.827C285.723 233.827 283.803 233.332 282.092 232.388C280.433 231.463 279.043 230.118 278.061 228.486C277.091 226.844 276.58 224.97 276.58 223.061C276.58 221.152 277.091 219.279 278.061 217.637C279.041 216.009 280.431 214.672 282.092 213.76C283.806 212.809 285.736 212.321 287.693 212.346C289.639 212.325 291.557 212.817 293.256 213.773ZM283.373 215.793C282.079 216.517 280.993 217.566 280.221 218.837C279.43 220.099 279.016 221.563 279.028 223.055C279.018 224.558 279.432 226.034 280.221 227.311C280.989 228.585 282.076 229.635 283.373 230.355C284.689 231.105 286.18 231.493 287.693 231.479C289.182 231.486 290.648 231.106 291.949 230.376C293.249 229.646 294.34 228.59 295.115 227.311C295.89 226.029 296.295 224.555 296.283 223.055C296.296 221.562 295.892 220.096 295.115 218.824C294.329 217.555 293.236 216.507 291.938 215.778C290.64 215.05 289.179 214.664 287.693 214.657C286.179 214.647 284.688 215.039 283.373 215.793Z" fill="#131225"/>
<path d="M320.959 231.391V233.714H309.243V212.409H311.666V231.391H320.959Z" fill="#131225"/>
<path d="M342.622 231.391V233.714H330.893V212.409H333.329V231.391H342.622Z" fill="#131225"/>
<path d="M355.004 214.746V221.755H365.691V224.104H355.004V231.391H367.362V233.714H352.581V212.409H366.972V214.746H355.004Z" fill="#131225"/>
<path d="M391.561 213.166C392.884 213.694 394.097 214.465 395.14 215.44L393.683 217.309C392.852 216.475 391.872 215.807 390.795 215.339C389.561 214.811 388.224 214.575 386.885 214.647C385.547 214.719 384.242 215.098 383.072 215.755C381.779 216.473 380.7 217.523 379.945 218.799C379.188 220.077 378.789 221.536 378.789 223.023C378.789 224.51 379.188 225.97 379.945 227.248C380.699 228.527 381.778 229.582 383.072 230.304C384.399 231.05 385.896 231.438 387.417 231.428C388.567 231.426 389.706 231.198 390.77 230.759C391.85 230.317 392.839 229.674 393.683 228.864L395.165 230.544C394.099 231.557 392.862 232.37 391.511 232.943C390.18 233.527 388.743 233.828 387.291 233.827C385.363 233.846 383.465 233.349 381.791 232.388C380.142 231.455 378.768 230.1 377.81 228.46C376.832 226.821 376.324 224.941 376.34 223.03C376.326 221.131 376.844 219.266 377.835 217.65C378.812 216.029 380.193 214.693 381.841 213.773C383.53 212.815 385.44 212.323 387.379 212.345C388.813 212.339 390.234 212.618 391.561 213.166Z" fill="#131225"/>
<path d="M412.018 214.746V233.714H409.594V214.746H402.7V212.409H418.95V214.746H412.018Z" fill="#131225"/>
<path d="M430.93 212.396H428.507V233.714H430.93V212.396Z" fill="#131225"/>
<path d="M458.069 213.773C459.728 214.693 461.117 216.034 462.1 217.663C463.091 219.288 463.605 221.162 463.582 223.068C463.599 224.981 463.086 226.862 462.1 228.498C461.118 230.13 459.728 231.476 458.069 232.401C456.36 233.345 454.443 233.84 452.493 233.84C450.544 233.84 448.626 233.345 446.917 232.401C445.258 231.476 443.868 230.13 442.886 228.498C441.917 226.857 441.405 224.983 441.405 223.074C441.405 221.165 441.917 219.291 442.886 217.65C443.866 216.022 445.257 214.684 446.917 213.773C448.631 212.821 450.561 212.334 452.518 212.358C454.461 212.337 456.375 212.829 458.069 213.785V213.773ZM448.198 215.806C446.903 216.533 445.814 217.581 445.034 218.85C444.247 220.113 443.837 221.577 443.853 223.068C443.839 224.57 444.248 226.046 445.034 227.324C445.829 228.609 446.94 229.668 448.26 230.397C449.579 231.127 451.063 231.504 452.568 231.491C454.058 231.499 455.524 231.119 456.824 230.389C458.125 229.659 459.215 228.603 459.99 227.324C460.766 226.042 461.17 224.568 461.158 223.068C461.172 221.575 460.767 220.109 459.99 218.837C459.219 217.573 458.138 216.529 456.851 215.806C455.55 215.05 454.071 214.658 452.568 214.669C451.054 214.657 449.563 215.05 448.248 215.806" fill="#131225"/>
<path d="M489.187 233.714L476.479 216.615V233.714H474.055V212.409H476.566L489.288 229.534V212.409H491.674V233.714H489.187Z" fill="#131225"/>
</g>
<defs>
<clipPath id="clip0_1_222">
<rect width="600" height="233.84" fill="white"/>
</clipPath>
</defs>
</svg>
