<svg width="282" height="109" viewBox="0 0 282 109" fill="none" xmlns="http://www.w3.org/2000/svg">
<g clip-path="url(#clip0_1_85)">
<path d="M58.6688 1.50098H47.1062V80.5372H58.6688V1.50098Z" fill="white"/>
<path d="M11.5685 1.50098H0V80.5313H39.0909V69.9586H11.5685V1.50098Z" fill="white"/>
<path d="M110.597 54.6882C110.597 69.3228 99.8846 71.4539 95.6054 71.4539C91.3263 71.4539 80.6136 69.3228 80.6136 54.6882V1.49512H69.0451V55.0061C69.0451 63.9776 72.0434 70.4943 77.0781 75.2979C82.2655 79.6478 88.8253 82.0327 95.6025 82.0327C102.38 82.0327 108.939 79.6478 114.127 75.2979C119.167 70.4943 122.166 63.9776 122.166 55.0061V1.49512H110.597V54.6882Z" fill="white"/>
<path d="M240.767 0C216.567 0 199.539 19.5442 199.539 41.0133C199.539 62.6944 217.098 82.0326 240.767 82.0326C251.651 82.0468 262.098 77.763 269.824 70.1174C277.551 62.4718 281.928 52.0864 282 41.2312C282 18.6965 264.329 0.0235522 240.767 0.0235522V0ZM240.767 71.4775C220.421 71.4775 211.107 53.9643 211.107 41.0369C211.107 28.4332 220.315 10.5962 240.767 10.5962C260.474 10.5962 270.437 27.3677 270.437 41.3607C270.437 53.7229 261.224 71.4775 240.767 71.4775Z" fill="white"/>
<path d="M177.388 58.8502C177.355 60.8408 177.067 62.819 176.532 64.737C175.033 69.4465 171.178 71.4656 167.218 71.4656C164.538 71.4656 159.61 71.1477 157.149 64.737H145.261C147.191 75.3333 156.83 82.0442 167.1 82.0442C175.77 82.0442 183.485 77.7704 187.014 69.4406C188.355 65.8537 189.01 62.0479 188.944 58.2203V1.49512H177.376L177.388 58.8502Z" fill="white"/>
<path d="M159.822 38.1461C159.791 36.0544 159.139 34.0188 157.95 32.2958C156.76 30.5729 155.086 29.2396 153.138 28.4641C151.19 27.6885 149.056 27.5054 147.004 27.9378C144.951 28.3702 143.074 29.3987 141.606 30.8938C140.139 32.3889 139.149 34.2836 138.76 36.3392C138.371 38.3948 138.6 40.5193 139.42 42.445C140.239 44.3706 141.612 46.0113 143.364 47.1602C145.117 48.3092 147.172 48.915 149.269 48.9012C150.67 48.8866 152.055 48.5968 153.344 48.0483C154.632 47.4998 155.8 46.7034 156.78 45.7046C157.76 44.7058 158.533 43.5242 159.055 42.2272C159.577 40.9303 159.838 39.5435 159.822 38.1461Z" fill="white"/>
<path d="M52.9554 107.858V108.941H47.4486V99.0098H48.5818V107.858H52.9554Z" fill="white"/>
<path d="M58.781 99.0039H57.6418V108.941H58.781V99.0039Z" fill="white"/>
<path d="M67.2567 108.941L63.2136 99.0098H64.4354L67.8705 107.628L71.3116 99.0098H72.5097L68.4371 108.941H67.2567Z" fill="white"/>
<path d="M78.0756 99.0039H76.9364V108.941H78.0756V99.0039Z" fill="white"/>
<path d="M91.0489 108.941L85.0757 100.97V108.941H83.9366V99.0098H85.117L91.0902 106.992V99.0098H92.2175V108.941H91.0489Z" fill="white"/>
<path d="M106.041 104.091V107.693C105.519 108.103 104.932 108.423 104.305 108.641C103.676 108.873 103.011 108.993 102.34 108.994C101.426 109.004 100.526 108.772 99.7311 108.323C98.956 107.89 98.3071 107.263 97.8483 106.504C97.385 105.741 97.1439 104.865 97.1518 103.973C97.141 103.084 97.3825 102.211 97.8483 101.453C98.3151 100.695 98.9722 100.072 99.7547 99.646C100.566 99.1996 101.479 98.9704 102.405 98.9808C103.751 98.978 105.053 99.461 106.07 100.341L105.415 101.194C105.004 100.832 104.53 100.546 104.016 100.352C103.503 100.151 102.956 100.047 102.405 100.046C101.682 100.038 100.97 100.218 100.339 100.57C99.7262 100.906 99.2131 101.398 98.8517 101.995C98.4887 102.593 98.2968 103.279 98.2968 103.979C98.2968 104.678 98.4887 105.364 98.8517 105.963C99.2129 106.561 99.7259 107.055 100.339 107.393C100.969 107.747 101.682 107.93 102.405 107.923C102.864 107.919 103.321 107.844 103.756 107.699C104.204 107.561 104.631 107.363 105.025 107.11V104.114L106.041 104.091Z" fill="white"/>
<path d="M124.603 99.3631C125.225 99.6092 125.796 99.9685 126.286 100.423L125.601 101.294C125.209 100.904 124.746 100.592 124.237 100.376C123.658 100.131 123.031 100.021 122.403 100.055C121.775 100.088 121.163 100.265 120.613 100.57C120.004 100.901 119.495 101.391 119.144 101.989C118.788 102.584 118.601 103.265 118.601 103.958C118.601 104.651 118.788 105.331 119.144 105.927C119.497 106.524 120.005 107.016 120.613 107.351C121.236 107.698 121.937 107.879 122.65 107.875C123.192 107.875 123.73 107.769 124.232 107.563C124.74 107.357 125.204 107.058 125.601 106.68L126.297 107.463C125.797 107.936 125.215 108.314 124.58 108.582C123.954 108.853 123.279 108.993 122.597 108.994C121.691 109.002 120.798 108.771 120.011 108.323C119.236 107.888 118.591 107.256 118.14 106.492C117.681 105.728 117.442 104.852 117.45 103.961C117.441 103.076 117.683 102.207 118.146 101.453C118.809 100.408 119.817 99.6267 120.996 99.245C122.176 98.8633 123.452 98.9051 124.603 99.3631Z" fill="white"/>
<path d="M137.83 99.6461C138.608 100.075 139.26 100.7 139.719 101.459C140.184 102.215 140.425 103.086 140.416 103.973C140.424 104.865 140.182 105.741 139.719 106.504C139.26 107.265 138.609 107.892 137.83 108.323C137.026 108.763 136.124 108.994 135.207 108.994C134.29 108.994 133.387 108.763 132.583 108.323C131.804 107.892 131.15 107.265 130.689 106.504C130.233 105.739 129.993 104.866 129.993 103.976C129.993 103.086 130.233 102.213 130.689 101.447C131.149 100.689 131.803 100.065 132.583 99.6402C133.389 99.1968 134.296 98.9696 135.216 98.9809C136.131 98.9712 137.032 99.2005 137.83 99.6461ZM133.185 100.588C132.577 100.925 132.067 101.414 131.704 102.007C131.332 102.595 131.138 103.277 131.143 103.973C131.139 104.674 131.333 105.361 131.704 105.957C132.065 106.551 132.576 107.04 133.185 107.375C133.804 107.725 134.504 107.906 135.216 107.899C135.916 107.903 136.605 107.726 137.216 107.385C137.827 107.045 138.34 106.553 138.704 105.957C139.069 105.359 139.259 104.672 139.253 103.973C139.259 103.277 139.069 102.594 138.704 102.001C138.335 101.409 137.821 100.921 137.211 100.581C136.601 100.241 135.914 100.061 135.216 100.058C134.504 100.053 133.804 100.236 133.185 100.588Z" fill="white"/>
<path d="M150.851 107.858V108.941H145.344V99.0098H146.483V107.858H150.851Z" fill="white"/>
<path d="M161.032 107.858V108.941H155.52V99.0098H156.665V107.858H161.032Z" fill="white"/>
<path d="M166.852 100.099V103.366H171.875V104.461H166.852V107.858H172.66V108.941H165.713V99.0098H172.477V100.099H166.852Z" fill="white"/>
<path d="M184.034 99.3634C184.655 99.6096 185.226 99.9689 185.716 100.423L185.031 101.294C184.641 100.906 184.18 100.594 183.674 100.376C183.094 100.13 182.465 100.02 181.836 100.054C181.207 100.087 180.594 100.264 180.044 100.57C179.436 100.905 178.929 101.394 178.574 101.989C178.219 102.585 178.031 103.265 178.031 103.958C178.031 104.651 178.219 105.332 178.574 105.927C178.929 106.524 179.436 107.015 180.044 107.352C180.668 107.7 181.371 107.88 182.086 107.876C182.627 107.875 183.162 107.769 183.662 107.564C184.17 107.358 184.634 107.058 185.031 106.681L185.728 107.464C185.227 107.936 184.645 108.315 184.01 108.582C183.384 108.854 182.709 108.994 182.027 108.994C181.121 109.003 180.229 108.771 179.442 108.323C178.667 107.889 178.021 107.257 177.571 106.492C177.111 105.728 176.872 104.852 176.88 103.961C176.873 103.076 177.117 102.207 177.582 101.453C178.042 100.698 178.691 100.075 179.465 99.646C180.259 99.1999 181.157 98.9704 182.068 98.9808C182.742 98.9779 183.41 99.1079 184.034 99.3634Z" fill="white"/>
<path d="M193.648 100.099V108.941H192.509V100.099H189.269V99.0098H196.907V100.099H193.648Z" fill="white"/>
<path d="M202.537 99.0039H201.398V108.941H202.537V99.0039Z" fill="white"/>
<path d="M215.292 99.6461C216.072 100.075 216.725 100.7 217.187 101.459C217.653 102.217 217.894 103.09 217.883 103.979C217.891 104.871 217.65 105.747 217.187 106.51C216.725 107.271 216.072 107.898 215.292 108.329C214.489 108.769 213.588 109 212.672 109C211.755 109 210.854 108.769 210.051 108.329C209.271 107.898 208.618 107.271 208.156 106.51C207.701 105.745 207.46 104.872 207.46 103.982C207.46 103.092 207.701 102.218 208.156 101.453C208.617 100.695 209.271 100.071 210.051 99.6461C210.856 99.2026 211.763 98.9754 212.683 98.9867C213.596 98.977 214.496 99.2064 215.292 99.6519V99.6461ZM210.653 100.594C210.044 100.933 209.532 101.421 209.166 102.013C208.796 102.602 208.603 103.284 208.611 103.979C208.604 104.679 208.797 105.367 209.166 105.963C209.54 106.562 210.062 107.055 210.682 107.395C211.302 107.735 211.999 107.911 212.707 107.905C213.407 107.909 214.096 107.732 214.707 107.391C215.318 107.051 215.831 106.559 216.195 105.963C216.56 105.365 216.75 104.678 216.744 103.979C216.751 103.283 216.56 102.6 216.195 102.007C215.833 101.417 215.325 100.931 214.72 100.594C214.108 100.241 213.413 100.058 212.707 100.064C211.995 100.058 211.295 100.241 210.677 100.594" fill="white"/>
<path d="M229.918 108.941L223.945 100.97V108.941H222.806V99.0098H223.986L229.965 106.992V99.0098H231.087V108.941H229.918Z" fill="white"/>
</g>
<defs>
<clipPath id="clip0_1_85">
<rect width="282" height="109" fill="white"/>
</clipPath>
</defs>
</svg>
