<svg width="353" height="137" viewBox="0 0 353 137" fill="none" xmlns="http://www.w3.org/2000/svg">
<g clip-path="url(#clip0_1_54)">
<path d="M73.4401 1.88672H58.9663V101.226H73.4401V1.88672Z" fill="#C4C4C4"/>
<path d="M14.4811 1.88672H0V101.218H48.933V87.9298H14.4811V1.88672Z" fill="#C4C4C4"/>
<path d="M138.443 68.7363C138.443 87.1302 125.033 89.8087 119.676 89.8087C114.32 89.8087 100.91 87.1302 100.91 68.7363V1.87891H86.4288V69.1359C86.4288 80.412 90.182 88.6027 96.4843 94.6402C102.978 100.107 111.189 103.105 119.673 103.105C128.156 103.105 136.367 100.107 142.861 94.6402C149.171 88.6027 152.924 80.412 152.924 69.1359V1.87891H138.443V68.7363Z" fill="#C4C4C4"/>
<path d="M301.385 0C271.093 0 249.777 24.5647 249.777 51.5489C249.777 78.7994 271.758 103.105 301.385 103.105C315.009 103.123 328.087 97.7388 337.759 88.1292C347.43 78.5196 352.91 65.4664 353 51.8226C353 23.4993 330.879 0.0296023 301.385 0.0296023V0ZM301.385 89.8387C275.917 89.8387 264.259 67.8267 264.259 51.5785C264.259 35.7372 275.784 13.3182 301.385 13.3182C326.055 13.3182 338.526 34.398 338.526 51.9854C338.526 67.5233 326.993 89.8387 301.385 89.8387Z" fill="#C4C4C4"/>
<path d="M222.049 73.9674C222.008 76.4694 221.648 78.9558 220.978 81.3664C219.101 87.2856 214.277 89.8235 209.319 89.8235C205.965 89.8235 199.795 89.424 196.714 81.3664H181.834C184.25 94.6846 196.316 103.12 209.171 103.12C220.025 103.12 229.681 97.7478 234.1 87.2782C235.778 82.77 236.598 77.9865 236.515 73.1757V1.87891H222.034L222.049 73.9674Z" fill="#C4C4C4"/>
<path d="M200.061 47.9453C200.022 45.3163 199.206 42.7578 197.717 40.5923C196.228 38.4267 194.133 36.7509 191.694 35.7762C189.256 34.8014 186.584 34.5713 184.015 35.1148C181.446 35.6582 179.096 36.951 177.259 38.8301C175.423 40.7092 174.183 43.0907 173.696 45.6743C173.209 48.2579 173.496 50.9282 174.522 53.3485C175.548 55.7689 177.266 57.831 179.46 59.2751C181.654 60.7191 184.226 61.4805 186.851 61.4633C188.605 61.4449 190.338 61.0806 191.951 60.3913C193.565 59.7019 195.026 58.7009 196.253 57.4455C197.48 56.1901 198.448 54.705 199.101 53.0749C199.755 51.4448 200.081 49.7017 200.061 47.9453Z" fill="#C4C4C4"/>
<path d="M66.2882 135.565V136.926H59.3948V124.444H60.8134V135.565H66.2882Z" fill="#C4C4C4"/>
<path d="M73.5804 124.437H72.1545V136.926H73.5804V124.437Z" fill="#C4C4C4"/>
<path d="M84.1901 136.926L79.1291 124.444H80.6585L84.9585 135.277L89.2659 124.444H90.7657L85.6678 136.926H84.1901Z" fill="#C4C4C4"/>
<path d="M97.7329 124.437H96.3069V136.926H97.7329V124.437Z" fill="#C4C4C4"/>
<path d="M113.972 136.926L106.495 126.908V136.926H105.07V124.444H106.547L114.024 134.477V124.444H115.435V136.926H113.972Z" fill="#C4C4C4"/>
<path d="M132.739 130.829V135.357C132.086 135.872 131.352 136.274 130.567 136.548C129.779 136.84 128.946 136.99 128.106 136.992C126.963 137.004 125.836 136.713 124.841 136.149C123.87 135.604 123.058 134.817 122.484 133.863C121.904 132.904 121.602 131.802 121.612 130.681C121.598 129.564 121.901 128.466 122.484 127.514C123.068 126.562 123.891 125.779 124.87 125.243C125.885 124.682 127.028 124.394 128.188 124.407C129.873 124.403 131.503 125.01 132.776 126.116L131.956 127.189C131.441 126.733 130.847 126.375 130.205 126.131C129.562 125.877 128.878 125.747 128.188 125.746C127.283 125.735 126.391 125.962 125.602 126.404C124.835 126.827 124.192 127.444 123.74 128.195C123.285 128.947 123.045 129.809 123.045 130.688C123.045 131.568 123.285 132.43 123.74 133.182C124.192 133.935 124.834 134.555 125.602 134.98C126.391 135.425 127.282 135.654 128.188 135.646C128.763 135.642 129.334 135.547 129.88 135.365C130.44 135.192 130.975 134.943 131.468 134.625V130.859L132.739 130.829Z" fill="#C4C4C4"/>
<path d="M155.975 124.888C156.753 125.197 157.467 125.649 158.081 126.219L157.224 127.314C156.733 126.824 156.154 126.433 155.517 126.16C154.792 125.852 154.007 125.714 153.221 125.757C152.435 125.799 151.668 126.021 150.981 126.404C150.217 126.82 149.581 127.437 149.141 128.188C148.696 128.936 148.461 129.791 148.461 130.663C148.461 131.534 148.696 132.389 149.141 133.137C149.583 133.889 150.218 134.507 150.981 134.928C151.759 135.364 152.637 135.591 153.53 135.587C154.209 135.586 154.881 135.453 155.51 135.194C156.146 134.935 156.727 134.559 157.224 134.085L158.096 135.069C157.469 135.662 156.74 136.138 155.946 136.474C155.162 136.816 154.317 136.992 153.463 136.992C152.329 137.003 151.212 136.712 150.227 136.149C149.257 135.603 148.449 134.809 147.885 133.848C147.31 132.887 147.011 131.786 147.02 130.666C147.01 129.554 147.312 128.462 147.892 127.514C148.722 126.201 149.984 125.219 151.46 124.739C152.936 124.259 154.534 124.312 155.975 124.888Z" fill="#C4C4C4"/>
<path d="M172.532 125.243C173.506 125.782 174.321 126.568 174.897 127.522C175.479 128.472 175.781 129.567 175.769 130.681C175.779 131.802 175.477 132.904 174.897 133.863C174.322 134.819 173.507 135.607 172.532 136.149C171.526 136.702 170.396 136.992 169.248 136.992C168.1 136.992 166.971 136.702 165.964 136.149C164.988 135.607 164.171 134.819 163.593 133.863C163.022 132.901 162.721 131.803 162.721 130.685C162.721 129.566 163.022 128.469 163.593 127.507C164.169 126.553 164.987 125.77 165.964 125.235C166.972 124.678 168.108 124.393 169.259 124.407C170.405 124.395 171.533 124.683 172.532 125.243ZM166.718 126.427C165.956 126.851 165.317 127.465 164.863 128.21C164.398 128.949 164.155 129.807 164.161 130.681C164.156 131.562 164.399 132.426 164.863 133.175C165.315 133.921 165.955 134.536 166.718 134.958C167.492 135.398 168.369 135.625 169.259 135.616C170.136 135.621 170.998 135.398 171.763 134.97C172.528 134.543 173.17 133.924 173.626 133.175C174.082 132.424 174.32 131.56 174.313 130.681C174.321 129.807 174.083 128.948 173.626 128.202C173.164 127.459 172.521 126.845 171.757 126.418C170.993 125.991 170.134 125.765 169.259 125.761C168.368 125.755 167.492 125.985 166.718 126.427Z" fill="#C4C4C4"/>
<path d="M188.831 135.565V136.926H181.938V124.444H183.364V135.565H188.831Z" fill="#C4C4C4"/>
<path d="M201.576 135.565V136.926H194.675V124.444H196.109V135.565H201.576Z" fill="#C4C4C4"/>
<path d="M208.861 125.813V129.92H215.148V131.296H208.861V135.565H216.131V136.926H207.435V124.444H215.902V125.813H208.861Z" fill="#C4C4C4"/>
<path d="M230.368 124.888C231.147 125.197 231.861 125.649 232.474 126.219L231.617 127.314C231.128 126.826 230.552 126.435 229.918 126.16C229.192 125.851 228.405 125.713 227.617 125.755C226.83 125.797 226.062 126.019 225.374 126.404C224.613 126.825 223.978 127.44 223.534 128.188C223.089 128.936 222.854 129.791 222.854 130.663C222.854 131.534 223.089 132.389 223.534 133.137C223.978 133.887 224.613 134.505 225.374 134.928C226.155 135.365 227.036 135.592 227.93 135.587C228.607 135.585 229.277 135.452 229.903 135.194C230.539 134.936 231.12 134.559 231.617 134.085L232.489 135.069C231.862 135.662 231.134 136.138 230.339 136.474C229.556 136.816 228.711 136.993 227.856 136.992C226.722 137.003 225.605 136.712 224.62 136.149C223.65 135.603 222.842 134.809 222.278 133.848C221.703 132.887 221.404 131.786 221.414 130.666C221.405 129.554 221.71 128.461 222.293 127.514C222.868 126.565 223.68 125.782 224.65 125.243C225.644 124.682 226.767 124.394 227.908 124.407C228.752 124.403 229.588 124.566 230.368 124.888Z" fill="#C4C4C4"/>
<path d="M242.404 125.813V136.926H240.978V125.813H236.922V124.444H246.482V125.813H242.404Z" fill="#C4C4C4"/>
<path d="M253.531 124.437H252.105V136.926H253.531V124.437Z" fill="#C4C4C4"/>
<path d="M269.497 125.243C270.473 125.782 271.291 126.568 271.869 127.522C272.452 128.474 272.754 129.572 272.74 130.689C272.75 131.81 272.449 132.912 271.869 133.871C271.291 134.827 270.473 135.615 269.497 136.157C268.492 136.71 267.363 137 266.217 137C265.07 137 263.941 136.71 262.936 136.157C261.96 135.615 261.142 134.827 260.564 133.871C259.994 132.909 259.693 131.811 259.693 130.693C259.693 129.574 259.994 128.476 260.564 127.515C261.141 126.561 261.959 125.777 262.936 125.243C263.944 124.686 265.08 124.4 266.231 124.415C267.374 124.402 268.5 124.691 269.497 125.251V125.243ZM263.69 126.435C262.928 126.861 262.287 127.474 261.828 128.218C261.365 128.958 261.124 129.816 261.133 130.689C261.125 131.569 261.366 132.434 261.828 133.182C262.296 133.936 262.95 134.556 263.726 134.983C264.502 135.411 265.375 135.631 266.261 135.624C267.137 135.629 268 135.406 268.765 134.978C269.53 134.55 270.171 133.932 270.627 133.182C271.084 132.432 271.322 131.568 271.315 130.689C271.323 129.814 271.084 128.955 270.627 128.21C270.174 127.47 269.538 126.858 268.78 126.435C268.015 125.992 267.145 125.762 266.261 125.769C265.37 125.762 264.493 125.991 263.719 126.435" fill="#C4C4C4"/>
<path d="M287.805 136.926L280.328 126.908V136.926H278.902V124.444H280.38L287.864 134.477V124.444H289.268V136.926H287.805Z" fill="#C4C4C4"/>
</g>
<defs>
<clipPath id="clip0_1_54">
<rect width="353" height="137" fill="white"/>
</clipPath>
</defs>
</svg>
