<svg width="22" height="127" viewBox="0 0 22 127" fill="none" xmlns="http://www.w3.org/2000/svg">
<g clip-path="url(#clip0_282_26676)">
<path d="M11 123L11 106L9 106L9 123L11 123Z" fill="#131316"/>
<path d="M10 127L5 120L15 120L10 127Z" fill="#131316"/>
</g>
<path d="M11.94 81.6L17 81.6L17 84.06L3 84.06C3 83.4733 2.99333 82.84 2.98 82.16C2.96667 81.4667 2.96 80.7733 2.96 80.08C2.96 79.0933 3.08667 78.24 3.34 77.52C3.58 76.7867 3.92 76.22 4.36 75.82C4.78667 75.42 5.26 75.1267 5.78 74.94C6.28667 74.7533 6.84667 74.66 7.46 74.66C8.72667 74.66 9.8 75.1133 10.68 76.02C11.56 76.9133 12 78.1667 12 79.78C12 80.5933 11.98 81.2 11.94 81.6ZM5.26 79.84L5.3 81.6L9.6 81.6C9.66667 80.8933 9.7 80.3133 9.7 79.86C9.7 79.0733 9.50667 78.4467 9.12 77.98C8.73333 77.5 8.17333 77.26 7.44 77.26C5.98667 77.26 5.26 78.12 5.26 79.84ZM11.76 69.3539L17 69.3539L17 71.8139L3 71.8139C3 71.1206 2.99333 70.3672 2.98 69.5539C2.96667 68.7406 2.96 68.0739 2.96 67.5539C2.96 64.1672 4.4 62.4739 7.28 62.4739C8.34667 62.4739 9.22667 62.7472 9.92 63.2939C10.5867 63.8406 11.04 64.4672 11.28 65.1739L17 60.7939L17 63.7739L11.76 67.6339L11.76 69.3539ZM5.26 67.6739C5.26 67.7406 5.26667 67.8472 5.28 67.9939C5.28 68.1406 5.28667 68.3472 5.3 68.6139C5.3 68.8806 5.3 69.1272 5.3 69.3539L9.46 69.3539L9.46 67.7539C9.46 66.9672 9.26667 66.3272 8.88 65.8339C8.49333 65.3272 7.96667 65.0739 7.3 65.0739C5.94 65.0739 5.26 65.9406 5.26 67.6739ZM10 60.2758C7.96 60.2758 6.24667 59.5958 4.86 58.2358C3.47333 56.8491 2.78 55.1024 2.78 52.9958C2.78 50.8891 3.44667 49.1491 4.78 47.7758C6.12666 46.3891 7.86666 45.6958 10 45.6958C12.0933 45.6958 13.82 46.3891 15.18 47.7758C16.54 49.1624 17.22 50.9024 17.22 52.9958C17.22 55.1024 16.5533 56.8424 15.22 58.2158C13.8867 59.5891 12.1467 60.2758 10 60.2758ZM10 57.6758C11.4133 57.6758 12.5867 57.2291 13.52 56.3358C14.4533 55.4424 14.92 54.3291 14.92 52.9958C14.92 51.5558 14.4533 50.4158 13.52 49.5758C12.5867 48.7224 11.4133 48.2958 10 48.2958C8.57333 48.2958 7.39333 48.7491 6.46 49.6558C5.54 50.5624 5.08 51.6758 5.08 52.9958C5.08 54.3424 5.54 55.4624 6.46 56.3558C7.38 57.2358 8.56 57.6758 10 57.6758ZM3 41.9164L3 39.4564L13.7 39.4564C14.8333 39.4564 15.7067 39.7431 16.32 40.3164C16.92 40.8897 17.22 41.7297 17.22 42.8364C17.22 43.3297 17.14 43.7964 16.98 44.2364C16.8067 44.6764 16.6 45.0031 16.36 45.2164L14.48 44.4164C14.7733 44.0431 14.92 43.6297 14.92 43.1764C14.92 42.3364 14.3733 41.9164 13.28 41.9164L3 41.9164ZM17 27.2834L17 35.5834L3 35.5834L3 27.4834L5.3 27.4834L5.3 33.1234L8.78 33.1234L8.78 28.0834L11.08 28.0834L11.08 33.1234L14.7 33.1234L14.7 27.2834L17 27.2834ZM13.8 14.3595L15.64 13.4195C16.1067 13.8595 16.4867 14.4929 16.78 15.3195C17.0733 16.1329 17.22 16.9929 17.22 17.8995C17.22 20.0329 16.56 21.7729 15.24 23.1195C13.92 24.4529 12.1733 25.1195 10 25.1195C7.92 25.1195 6.19333 24.4862 4.82 23.2195C3.46 21.9662 2.78 20.2129 2.78 17.9595C2.78 16.1729 3.25333 14.7529 4.2 13.6995L6.02 14.7995C5.39333 15.7462 5.08 16.7995 5.08 17.9595C5.08 19.2929 5.52666 20.3862 6.42 21.2395C7.31333 22.0929 8.50666 22.5195 10 22.5195C11.4667 22.5195 12.6533 22.0729 13.56 21.1795C14.4667 20.2729 14.92 19.1062 14.92 17.6795C14.92 16.4529 14.5467 15.3462 13.8 14.3595ZM5.3 8.17406L5.3 12.7141L3 12.7141L3 1.17406L5.3 1.17406L5.3 5.71406L17 5.71406L17 8.17406L5.3 8.17406Z" fill="#131316"/>
<defs>
<clipPath id="clip0_282_26676">
<rect width="21" height="11" fill="white" transform="translate(15 106) rotate(90)"/>
</clipPath>
</defs>
</svg>
